<svg height="480pt" viewBox="0 0 480.07707 480" width="480pt" xmlns="http://www.w3.org/2000/svg"><path d="m448.039062 272.039062-32 24v-120c0-30.929687-39.402343-56-88-56-48.601562 0-88 25.070313-88 56v240c0 30.925782 39.398438 56 88 56 48.597657 0 88-25.074218 88-56v-64l49.296876-35.199218c4.207031-3.007813 6.707031-7.859375 6.703124-13.035156v-15.765626c0-16-13.410156-23.570312-24-16zm0 0" fill="#dd9962"/><path d="m152.039062 8.039062c-48.601562 0-88 25.070313-88 56v64l-32-24c-10.59375-7.570312-24 0-24 16v15.765626c-.003906 5.175781 2.492188 10.027343 6.703126 13.035156l49.296874 35.199218v232c0 30.925782 39.398438 56 88 56 48.597657 0 88-25.074218 88-56v-352c0-30.929687-39.402343-56-88-56zm0 0" fill="#d3843d"/><g fill="#ffd782"><path d="m416.039062 176.039062c0-30.929687-39.398437-56-88-56-48.601562 0-88 25.070313-88 56 0 30.925782 39.398438 56 88 56 48.601563 0 88-25.074218 88-56zm0 0"/><path d="m240.039062 64.039062c0-30.929687-39.398437-56-88-56-48.601562 0-88 25.070313-88 56 0 30.925782 39.398438 56 88 56 48.601563 0 88-25.074218 88-56zm0 0"/><path d="m240.039062 328.039062c-4.417968 0-8-3.582031-8-8v-64c0-4.417968 3.582032-8 8-8 4.417969 0 8 3.582032 8 8v64c0 4.417969-3.582031 8-8 8zm0 0"/><path d="m240.039062 440.039062c-4.417968 0-8-3.582031-8-8v-80c0-4.417968 3.582032-8 8-8 4.417969 0 8 3.582032 8 8v80c0 4.417969-3.582031 8-8 8zm0 0"/><path d="m304.039062 472.039062c-4.417968 0-8-3.582031-8-8v-96c0-4.417968 3.582032-8 8-8 4.417969 0 8 3.582032 8 8v96c0 4.417969-3.582031 8-8 8zm0 0"/><path d="m304.039062 344.039062c-4.417968 0-8-3.582031-8-8v-104c0-4.417968 3.582032-8 8-8 4.417969 0 8 3.582032 8 8v104c0 4.417969-3.582031 8-8 8zm0 0"/><path d="m384.039062 352.039062c-4.417968 0-8-3.582031-8-8v-88c0-4.417968 3.582032-8 8-8 4.417969 0 8 3.582032 8 8v88c0 4.417969-3.582031 8-8 8zm0 0"/><path d="m384.039062 400.039062c-4.417968 0-8-3.582031-8-8v-16c0-4.417968 3.582032-8 8-8 4.417969 0 8 3.582032 8 8v16c0 4.417969-3.582031 8-8 8zm0 0"/><path d="m384.039062 432.039062c-1.046874-.011718-2.078124-.230468-3.039062-.640624-.980469-.386719-1.875-.957032-2.640625-1.679688-3.09375-3.15625-3.09375-8.207031 0-11.359375.75-.742187 1.648437-1.3125 2.640625-1.679687 2.976562-1.253907 6.417969-.589844 8.71875 1.679687 2.308594 2.289063 3 5.746094 1.753906 8.746094-1.246094 3.003906-4.183594 4.953125-7.433594 4.933593zm0 0"/></g><path d="m328.039062 208.039062c-53.160156 0-63.199218-28.265624-63.59375-29.472656-1.394531-4.195312.875-8.730468 5.074219-10.128906 4.195313-1.394531 8.730469.875 10.125 5.074219.21875.582031 7.671875 18.527343 48.394531 18.527343 45.765626 0 48-16.207031 48-16.367187.003907-2.105469.855469-4.117187 2.359376-5.585937 1.503906-1.46875 3.539062-2.273438 5.640624-2.230469 4.453126.082031 8.015626 3.726562 8 8.183593 0 3.269532-1.800781 32-64 32zm0 0" fill="#66342e"/><path d="m104.039062 288.039062c-4.417968 0-8-3.582031-8-8v-128c0-4.417968 3.582032-8 8-8 4.417969 0 8 3.582032 8 8v128c0 4.417969-3.582031 8-8 8zm0 0" fill="#ffd782"/><path d="m152.039062 384.039062c-4.417968 0-8-3.582031-8-8v-168c0-4.417968 3.582032-8 8-8 4.417969 0 8 3.582032 8 8v168c0 4.417969-3.582031 8-8 8zm0 0" fill="#ffd782"/><path d="m200.039062 288.039062c-4.417968 0-8-3.582031-8-8v-40c0-4.417968 3.582032-8 8-8 4.417969 0 8 3.582032 8 8v40c0 4.417969-3.582031 8-8 8zm0 0" fill="#ffd782"/><path d="m200.039062 464.039062c-4.417968 0-8-3.582031-8-8v-128c0-4.417968 3.582032-8 8-8 4.417969 0 8 3.582032 8 8v128c0 4.417969-3.582031 8-8 8zm0 0" fill="#ffd782"/><path d="m104.039062 464.039062c-4.417968 0-8-3.582031-8-8v-88c0-4.417968 3.582032-8 8-8 4.417969 0 8 3.582032 8 8v88c0 4.417969-3.582031 8-8 8zm0 0" fill="#ffd782"/><path d="m352.039062 168.039062c-2.121093 0-4.15625-.84375-5.65625-2.34375-4.820312-4.601562-11.511718-6.695312-18.097656-5.65625-6.964844.367188-13.707031 2.597657-19.519531 6.457032-3.550781 2.34375-8.316406 1.496094-10.84375-1.925782-2.527344-3.425781-1.929687-8.230468 1.355469-10.933593 8.429687-5.785157 18.300781-9.109375 28.511718-9.597657 11.011719-1.164062 21.96875 2.625 29.90625 10.34375 2.285157 2.289063 2.96875 5.726563 1.730469 8.71875-1.234375 2.988282-4.152343 4.9375-7.386719 4.9375zm0 0" fill="#66342e"/><path d="m152.039062 96.039062c-53.160156 0-63.199218-28.265624-63.59375-29.472656-1.394531-4.195312.875-8.730468 5.074219-10.128906 4.195313-1.394531 8.730469.875 10.125 5.074219.21875.582031 7.671875 18.527343 48.394531 18.527343 45.765626 0 48-16.207031 48-16.367187.003907-2.105469.855469-4.117187 2.359376-5.585937 1.503906-1.46875 3.539062-2.273438 5.640624-2.230469 4.453126.082031 8.015626 3.726562 8 8.183593 0 3.269532-1.800781 32-64 32zm0 0" fill="#66342e"/><path d="m148.941406 64.101562c-9.914062.390626-19.542968-3.378906-26.558594-10.398437-2.082031-2.007813-2.914062-4.984375-2.183593-7.78125.734375-2.796875 2.917969-4.980469 5.714843-5.714844 2.796876-.730469 5.773438.105469 7.78125 2.183594 4.824219 4.597656 11.511719 6.683594 18.09375 5.648437 6.96875-.371093 13.707032-2.597656 19.519532-6.457031 3.550781-2.628906 8.5625-1.886719 11.195312 1.664063 2.628906 3.550781 1.882813 8.5625-1.664062 11.191406-8.441406 5.792969-18.328125 9.121094-28.554688 9.601562-.992187 0-2.109375.0625-3.34375.0625zm0 0" fill="#66342e"/><path d="m384.039062 248.039062c-4.417968 0-8 3.582032-8 8v88c0 4.417969 3.582032 8 8 8 4.417969 0 8-3.582031 8-8v-88c0-4.417968-3.582031-8-8-8zm0 0"/><path d="m384.039062 368.039062c-4.417968 0-8 3.582032-8 8v16c0 4.417969 3.582032 8 8 8 4.417969 0 8-3.582031 8-8v-16c0-4.417968-3.582031-8-8-8zm0 0"/><path d="m381 416.679688c-.992188.367187-1.890625.9375-2.640625 1.679687-3.09375 3.152344-3.09375 8.203125 0 11.359375.765625.722656 1.660156 1.292969 2.640625 1.679688.960938.410156 1.992188.628906 3.039062.640624 3.25.019532 6.1875-1.929687 7.433594-4.933593 1.246094-3 .554688-6.457031-1.753906-8.746094-2.300781-2.269531-5.742188-2.933594-8.71875-1.679687zm0 0"/><path d="m328.039062 208.039062c62.199219 0 64-28.730468 64-32 .015626-4.457031-3.546874-8.101562-8-8.183593-2.101562-.042969-4.136718.761719-5.640624 2.230469-1.503907 1.46875-2.355469 3.480468-2.359376 5.585937 0 .160156-2.242187 16.367187-48 16.367187-40.722656 0-48.175781-17.945312-48.410156-18.527343-1.394531-4.199219-5.929687-6.46875-10.125-5.074219-4.199218 1.398438-6.46875 5.933594-5.074218 10.128906.410156 1.207032 10.449218 29.472656 63.609374 29.472656zm0 0"/><path d="m104.039062 288.039062c4.417969 0 8-3.582031 8-8v-128c0-4.417968-3.582031-8-8-8-4.417968 0-8 3.582032-8 8v128c0 4.417969 3.582032 8 8 8zm0 0"/><path d="m152.039062 384.039062c4.417969 0 8-3.582031 8-8v-168c0-4.417968-3.582031-8-8-8-4.417968 0-8 3.582032-8 8v168c0 4.417969 3.582032 8 8 8zm0 0"/><path d="m200.039062 288.039062c4.417969 0 8-3.582031 8-8v-40c0-4.417968-3.582031-8-8-8-4.417968 0-8 3.582032-8 8v40c0 4.417969 3.582032 8 8 8zm0 0"/><path d="m10.085938 155.335938 45.953124 32.824218v227.878906c0 35.886719 42.167969 64 96 64 39.894532 0 73.335938-15.457031 88-38.054687 14.664063 22.597656 48.101563 38.054687 88 38.054687 53.832032 0 96-28.113281 96-64v-59.878906l45.953126-32.800781c6.300781-4.519531 10.042968-11.796875 10.046874-19.554687v-15.765626c.542969-10.074218-4.660156-19.585937-13.433593-24.558593-7.492188-3.792969-16.488281-3-23.199219 2.046875l-.167969.109375-19.199219 14.402343v-104c0-35.886718-42.167968-64-96-64-33.777343 0-62.945312 11.070313-80 28.183594v-76.183594c0-35.886718-42.167968-63.9999995-96-63.9999995-53.832031 0-96 28.1132815-96 63.9999995v48l-19.351562-14.511718c-6.714844-5.042969-15.707031-5.835938-23.203125-2.046875-8.777344 4.96875-13.988281 14.484375-13.4453125 24.558593v15.765626c.0117187 7.75 3.7499995 15.015624 10.0468755 19.53125zm402.375 147.902343c2.722656 1.332031 5.957031 1.019531 8.378906-.800781l31.910156-23.933594c1.839844-1.507812 4.386719-1.820312 6.535156-.800781 3.335938 2.332031 5.15625 6.285156 4.753906 10.335937v15.765626c0 2.582031-1.246093 5.003906-3.34375 6.503906l-49.304687 35.203125c-2.109375 1.503906-3.359375 3.9375-3.351563 6.527343v64c0 26.015626-36.640624 48-80 48-5.351562 0-10.695312-.339843-16-1.015624v-94.984376c0-4.417968-3.582031-8-8-8-4.417968 0-8 3.582032-8 8v91.808594c-27.960937-7.578125-48-24.609375-48-43.808594v-204.183593c13.40625 12.496093 30.027344 21.011719 48 24.597656v99.585937c0 4.417969 3.582032 8 8 8 4.417969 0 8-3.582031 8-8v-96.921874c5.3125.59375 10.652344.902343 16 .921874 33.773438 0 62.941407-11.074218 80-28.183593v84.183593c-.015624 3.046876 1.699219 5.835938 4.421876 7.199219zm-84.421876-175.199219c43.359376 0 80 21.984376 80 48 0 26.015626-36.640624 48-80 48-43.359374 0-80-21.984374-80-48 0-26.015624 36.640626-48 80-48zm-176-112c43.359376 0 80 21.984376 80 48 0 26.015626-36.640624 48-80 48-43.359374 0-80-21.984374-80-48 0-26.015624 36.640626-48 80-48zm-136 104c-.402343-4.050781 1.414063-8.003906 4.75-10.335937.789063-.402344 1.660157-.613281 2.546876-.617187 1.410156.035156 2.773437.507812 3.902343 1.351562l32 24c2.425781 1.820312 5.667969 2.113281 8.378907.757812 2.710937-1.355468 4.421874-4.125 4.421874-7.15625v-28.183593c17.054688 17.109375 46.222657 28.183593 80 28.183593 33.773438 0 62.941407-11.074218 80-28.183593v316.183593c0 13.078126-9.273437 25.144532-24 33.894532v-121.894532c0-4.417968-3.582031-8-8-8-4.417968 0-8 3.582032-8 8v128c.046876.402344.125.800782.238282 1.191407-26.058594 9.078125-54.421875 9.078125-80.480469 0 .113281-.390625.195313-.789063.242187-1.191407v-88c0-4.417968-3.582031-8-8-8-4.417968 0-8 3.582032-8 8v81.894532c-14.730468-8.75-24-20.800782-24-33.894532v-232c0-2.585937-1.25-5.011718-3.351562-6.511718l-49.296875-35.199219c-2.105469-1.503906-3.355469-3.933594-3.351563-6.523437zm0 0"/><path d="m308.765625 166.496094c5.8125-3.859375 12.554687-6.089844 19.519531-6.457032 6.585938-1.039062 13.277344 1.054688 18.097656 5.65625 3.136719 3.03125 8.128907 2.988282 11.214844-.097656 3.085938-3.085937 3.128906-8.074218.097656-11.214844-7.9375-7.71875-18.894531-11.507812-29.90625-10.34375-10.210937.488282-20.082031 3.8125-28.511718 9.597657-3.558594 2.621093-4.320313 7.632812-1.699219 11.191406s7.628906 4.320313 11.1875 1.699219zm0 0"/><path d="m152.039062 96.039062c62.199219 0 64-28.730468 64-32 .015626-4.457031-3.546874-8.101562-8-8.183593-2.101562-.042969-4.136718.761719-5.640624 2.230469-1.503907 1.46875-2.355469 3.480468-2.359376 5.585937 0 .160156-2.242187 16.367187-48 16.367187-40.722656 0-48.175781-17.945312-48.410156-18.527343-1.394531-4.199219-5.929687-6.46875-10.125-5.074219-4.199218 1.398438-6.46875 5.933594-5.074218 10.128906.410156 1.207032 10.449218 29.472656 63.609374 29.472656zm0 0"/><path d="m148.941406 64.101562c1.234375 0 2.351563 0 3.34375-.0625 10.226563-.480468 20.113282-3.808593 28.554688-9.601562 3.558594-2.617188 4.320312-7.628906 1.699218-11.1875-2.621093-3.558594-7.628906-4.320312-11.1875-1.699219-5.824218 3.875-12.578124 6.117188-19.5625 6.488281-6.582031 1.035157-13.273437-1.054687-18.09375-5.65625-2.007812-2.078124-4.984374-2.914062-7.78125-2.183593-2.796874.734375-4.980468 2.917969-5.714843 5.714843-.730469 2.796876.101562 5.773438 2.183593 7.78125 7.011719 7.023438 16.640626 10.796876 26.558594 10.40625zm0 0"/></svg>